{"title":"Flammen.&amp;.Citronen.2008.720p.Bluray.DTS.x264-PerfectionHD","uid":9354651,"size":7091370461,"categoryP":"video","categoryS":"hd___movies","magnet":"?xt=urn:btih:6a44f3d26ca5a93bab181eb81f8eca55fcb513aa&amp;dn=Flammen.%26amp%3B.Citronen.2008.720p.Bluray.DTS.x264-PerfectionHD&amp;tr=udp%3A%2F%2Ftracker.openbittorrent.com%3A80&amp;tr=udp%3A%2F%2Fopen.demonii.com%3A1337&amp;tr=udp%3A%2F%2Ftracker.coppersurfer.tk%3A6969&amp;tr=udp%3A%2F%2Fexodus.desync.com%3A6969","seeders":0,"leechers":0,"uploader":"kanaille","files":-1,"time":1387154518,"description":"General\nUnique ID                                : 234524266856213203906065330153394949371 (0xB06FBB172D0029FC8DBDBD00D0024CFB)\nComplete name                            : Flammen.&amp;.Citronen.2008.720p.Bluray.DTS.x264-PerfectionHD.mkv\nFormat                                   : Matroska\nFormat version                           : Version 1\nFile size                                : 6.60 GiB\nDuration                                 : 2h 10mn\nOverall bit rate                         : 7 254 Kbps\nEncoded date                             : UTC 2008-10-27 19:19:18\nWriting application                      : mkvmerge v2.4.0 ('Fumbling Towards Ecstasy') built on Oct 11 2008 20:13:15\nWriting library                          : libebml v0.7.7 + libmatroska v0.8.1\n\nVideo\nID                                       : 1\nFormat                                   : AVC\nFormat/Info                              : Advanced Video Codec\nFormat profile                           : &lt;a class=&quot;__cf_email__&quot; href=&quot;/cdn-cgi/l/email-protection&quot; data-cfemail=&quot;246c4d434c6468170a15&quot;&gt;[email&amp;#160;protected]&lt;/a&gt;&lt;script data-cfhash='f9e31' type=&quot;text/javascript&quot;&gt;\n/* &lt;![CDATA[ */!function(){try{var t=&quot;currentScript&quot;in document?document.currentScript:function(){for(var t=document.getElementsByTagName(&quot;script&quot;),e=t.length;e--;)if(t[e].getAttribute(&quot;data-cfhash&quot;))return t[e]}();if(t&amp;&amp;t.previousSibling){var e,r,n,i,c=t.previousSibling,a=c.getAttribute(&quot;data-cfemail&quot;);if(a){for(e=&quot;&quot;,r=parseInt(a.substr(0,2),16),n=2;a.length-n;n+=2)i=parseInt(a.substr(n,2),16)^r,e+=String.fromCharCode(i);e=document.createTextNode(e),c.parentNode.replaceChild(e,c)}t.parentNode.removeChild(t);}}catch(u){}}()/* ]]&gt; */&lt;/script&gt;\nFormat settings, CABAC                   : Yes\nFormat settings, ReFrames                : 5 frames\nCodec ID                                 : V_MPEG4/ISO/AVC\nDuration                                 : 2h 10mn\nBit rate                                 : 5 601 Kbps\nWidth                                    : 1 280 pixels\nHeight                                   : 562 pixels\nDisplay aspect ratio                     : 2.25:1\nFrame rate mode                          : Constant\nFrame rate                               : 25.000 fps\nColor space                              : YUV\nChroma subsampling                       : 4:2:0\nBit depth                                : 8 bits\nScan type                                : Progressive\nBits/(Pixel*Frame)                       : 0.311\nStream size                              : 5.10 GiB (77%)\nWriting library                          : x264 core 65 r999M cc51047\nEncoding settings                        : cabac=1 / ref=5 / deblock=1:-3:-3 / analyse=0x3:0x133 / me=umh / subme=8 / psy_rd=1.0:0.0 / mixed_ref=1 / me_range=24 / chroma_me=1 / trellis=2 / 8x8dct=1 / cqm=0 / deadzone=21,11 / chroma_qp_offset=-2 / threads=6 / nr=0 / decimate=1 / mbaff=0 / bframes=4 / b_pyramid=1 / b_adapt=2 / b_bias=0 / direct=1 / wpredb=1 / keyint=250 / keyint_min=25 / scenecut=40(pre) / rc=crf / crf=18.0 / qcomp=0.60 / qpmin=10 / qpmax=51 / qpstep=4 / ip_ratio=1.40 / pb_ratio=1.30 / aq=1:0.80\nLanguage                                 : English\nDefault                                  : Yes\nForced                                   : No\n\nAudio\nID                                       : 2\nFormat                                   : DTS\nFormat/Info                              : Digital Theater Systems\nMode                                     : 16\nFormat settings, Endianness              : Big\nCodec ID                                 : A_DTS\nDuration                                 : 2h 10mn\nBit rate mode                            : Constant\nBit rate                                 : 1 509 Kbps\nChannel count                            : 6 channels\nChannel positions                        : Front: L C R, Side: L R, LFE\nSampling rate                            : 48.0 KHz\nBit depth                                : 24 bits\nCompression mode                         : Lossy\nStream size                              : 1.37 GiB (21%)\nLanguage                                 : Danish\nDefault                                  : Yes\nForced                                   : No\n\nText #1\nID                                       : 3\nFormat                                   : UTF-8\nCodec ID                                 : S_TEXT/UTF8\nCodec ID/Info                            : UTF-8 Plain Text\nLanguage                                 : Danish\nDefault                                  : Yes\nForced                                   : No\n\nText #2\nID                                       : 4\nFormat                                   : UTF-8\nCodec ID                                 : S_TEXT/UTF8\nCodec ID/Info                            : UTF-8 Plain Text\nLanguage                                 : Finnish\nDefault                                  : No\nForced                                   : No\n\nText #3\nID                                       : 5\nFormat                                   : UTF-8\nCodec ID                                 : S_TEXT/UTF8\nCodec ID/Info                            : UTF-8 Plain Text\nLanguage                                 : Norwegian\nDefault                                  : No\nForced                                   : No\n\nText #4\nID                                       : 6\nFormat                                   : UTF-8\nCodec ID                                 : S_TEXT/UTF8\nCodec ID/Info                            : UTF-8 Plain Text\nLanguage                                 : Swedish\nDefault                                  : No\nForced                                   : No\n\nMenu\n00:00:00.000                             : en:00:00:00.000\n00:06:04.320                             : en:00:06:04.320\n00:14:33.200                             : en:00:14:33.200\n00:22:55.560                             : en:00:22:55.560\n00:28:15.840                             : en:00:28:15.840\n00:39:08.080                             : en:00:39:08.080\n00:45:34.400                             : en:00:45:34.400\n00:54:58.360                             : en:00:54:58.360\n01:04:03.200                             : en:01:04:03.200\n01:12:59.280                             : en:01:12:59.280\n01:21:25.280                             : en:01:21:25.280\n01:29:03.840                             : en:01:29:03.840\n01:38:58.480                             : en:01:38:58.480\n01:49:30.240                             : en:01:49:30.240\n01:56:28.680                             : en:01:56:28.680\n02:04:52.800                             : en:02:04:52.800","torrent":{"xt":"urn:btih:6a44f3d26ca5a93bab181eb81f8eca55fcb513aa","amp;dn":"Flammen.%26amp%3B.Citronen.2008.720p.Bluray.DTS.x264-PerfectionHD","amp;tr":["udp%3A%2F%2Ftracker.openbittorrent.com%3A80","udp%3A%2F%2Fopen.demonii.com%3A1337","udp%3A%2F%2Ftracker.coppersurfer.tk%3A6969","udp%3A%2F%2Fexodus.desync.com%3A6969"],"infoHash":"6a44f3d26ca5a93bab181eb81f8eca55fcb513aa","infoHashBuffer":{"type":"Buffer","data":[106,68,243,210,108,165,169,59,171,24,30,184,31,142,202,85,252,181,19,170]},"announce":[],"urlList":[]}}